<!-- <?xml version="1.0" standalone="no"?>
<!DOCTYPE svg PUBLIC "-//W3C//DTD SVG 20010904//EN"
"http://www.w3.org/TR/2001/REC-SVG-20010904/DTD/svg10.dtd"> -->
<svg version="1.0" xmlns="http://www.w3.org/2000/svg"
width="203.000000pt" height="223.000000pt" viewBox="0 0 203.000000 223.000000"
preserveAspectRatio="xMidYMid meet">

<g transform="translate(0.000000,223.000000) scale(0.100000,-0.100000)"
fill="#000000" stroke="none">
<path d="M465 2131 c-124 -71 -262 -284 -316 -486 -31 -114 -31 -298 0 -415
59 -224 199 -408 406 -533 77 -46 168 -80 275 -102 103 -21 298 -16 400 11
246 63 449 238 541 464 38 93 46 158 26 197 -14 27 -32 38 -89 57 -11 3 -18
15 -18 29 0 34 -25 102 -51 138 -25 35 -22 39 39 60 25 8 50 22 55 31 13 20 2
49 -22 55 -14 4 -19 13 -19 34 1 16 6 29 13 29 7 0 20 9 30 20 15 17 16 24 7
45 -6 14 -20 25 -30 25 -30 0 -33 11 -12 38 44 56 16 82 -90 82 -77 0 -110
-12 -110 -41 0 -23 22 -49 40 -49 26 0 25 -12 -1 -36 -18 -16 -22 -16 -29 -4
-78 138 -210 219 -370 228 -159 8 -280 -36 -384 -141 -68 -68 -112 -148 -123
-222 -3 -25 -10 -48 -14 -51 -16 -9 -24 51 -24 176 1 110 4 134 28 201 35 97
34 123 -2 160 -39 39 -88 39 -156 0z m125 -6 c37 -19 48 -57 28 -99 -56 -118
-67 -316 -25 -446 14 -41 32 -92 41 -112 l16 -36 -31 -7 c-70 -16 -92 -135
-43 -232 68 -138 225 -204 427 -182 50 6 93 12 95 14 2 1 29 -5 60 -15 264
-82 509 29 539 245 6 49 9 51 47 34 44 -20 51 -58 26 -141 -82 -270 -275 -447
-570 -524 -101 -26 -312 -24 -414 5 -405 113 -657 457 -632 861 7 119 28 202
76 306 71 153 172 278 262 323 51 25 60 26 98 6z m653 -155 c160 -49 287 -212
287 -365 0 -80 -48 -192 -112 -261 l-41 -44 -121 1 c-74 0 -111 4 -95 9 86 26
213 180 148 180 -5 0 -14 -11 -19 -24 -16 -43 -80 -104 -126 -122 -35 -13 -63
-16 -130 -11 -63 5 -84 3 -81 -6 2 -6 23 -17 48 -23 61 -17 20 -16 -73 0 -146
26 -236 83 -264 168 -48 146 21 332 159 427 80 55 160 49 216 -14 45 -51 44
-111 -2 -162 -28 -30 -40 -36 -72 -35 -42 2 -60 13 -81 54 -13 25 -13 31 1 57
24 47 83 53 105 10 8 -14 6 -25 -6 -44 -22 -34 -8 -47 17 -16 26 31 24 57 -6
86 -43 44 -112 31 -135 -24 -30 -74 24 -151 105 -151 81 0 147 87 131 172 -6
35 -59 108 -79 108 -7 1 -25 7 -42 14 l-30 13 45 11 c76 17 182 14 253 -8z
m446 -94 c9 -10 2 -23 -30 -60 l-41 -46 46 0 c34 0 48 -5 53 -16 9 -24 -11
-31 -93 -33 -96 -3 -105 12 -43 75 l43 44 -41 0 c-44 0 -59 11 -49 35 7 20
139 21 155 1z m-19 -196 c0 -6 -7 -25 -16 -41 -18 -36 -14 -45 14 -30 29 16
44 14 40 -6 -2 -9 -24 -23 -56 -34 -62 -21 -74 -11 -48 40 21 39 21 39 -11 37
-39 -2 -39 17 0 31 41 15 77 16 77 3z m-17 -266 c20 -56 22 -162 4 -211 -26
-69 -73 -120 -143 -154 -67 -33 -72 -34 -194 -34 -77 0 -133 5 -145 12 l-20
12 20 7 c87 30 276 108 303 124 22 13 32 27 32 44 0 29 -42 66 -76 66 -32 0
-30 6 11 51 40 45 78 116 95 179 l12 45 42 -46 c22 -25 49 -68 59 -95z m-947
-49 c102 -78 215 -101 445 -91 162 8 256 -2 311 -30 15 -8 28 -21 28 -29 0 -8
-1 -15 -3 -15 -1 0 -49 -21 -107 -46 -284 -124 -463 -152 -614 -94 -86 33
-159 107 -181 183 -25 85 -9 142 45 159 17 6 22 4 76 -37z"/>
<path d="M1242 1589 c-7 -11 -26 -25 -43 -31 -37 -13 -37 -28 0 -28 20 0 37 9
55 31 14 17 24 35 20 40 -8 14 -18 11 -32 -12z"/>
<path d="M993 1479 c-7 -7 -29 -15 -49 -18 -50 -8 -57 -31 -9 -31 39 0 85 25
85 46 0 17 -12 18 -27 3z"/>
<path d="M143 480 c-41 -25 -44 -40 -41 -180 3 -107 4 -115 23 -115 19 0 20 8
25 115 3 63 9 121 13 128 5 6 19 12 32 12 13 0 27 -6 32 -12 4 -7 10 -65 13
-128 5 -107 6 -115 25 -115 19 0 20 8 25 115 3 63 9 121 13 128 11 16 52 16
65 -1 6 -7 13 -64 14 -128 3 -106 4 -114 23 -114 19 0 20 8 23 126 2 114 1
128 -18 152 -26 33 -77 44 -116 25 -24 -12 -33 -13 -54 -2 -35 19 -60 17 -97
-6z"/>
<path d="M615 486 c-63 -29 -70 -46 -70 -180 0 -114 1 -121 20 -121 16 0 21 8
25 40 l5 40 68 3 67 3 0 -34 c0 -42 23 -66 45 -47 20 17 21 186 1 235 -25 60
-101 89 -161 61z m93 -62 c16 -11 22 -25 22 -55 l0 -40 -67 3 -68 3 2 33 c2
63 60 92 111 56z"/>
<path d="M1242 488 c-8 -8 -12 -56 -12 -149 0 -113 3 -139 16 -150 14 -11 18
-10 30 6 10 14 14 53 14 143 0 143 -13 185 -48 150z"/>
<path d="M1702 488 c-34 -34 0 -155 54 -189 29 -18 34 -26 34 -59 0 -48 25
-74 46 -45 8 10 14 36 14 57 0 26 4 38 14 38 8 0 28 16 45 35 28 32 31 42 31
100 0 66 -7 79 -34 69 -11 -4 -16 -19 -16 -51 0 -70 -23 -103 -72 -103 -44 0
-68 32 -68 88 0 43 -12 72 -30 72 -3 0 -11 -5 -18 -12z"/>
<path d="M905 480 c-9 -15 -6 -283 4 -293 19 -19 40 6 43 51 l3 47 59 5 c48 4
62 10 82 33 33 38 33 96 0 134 -22 25 -31 28 -104 31 -53 3 -82 0 -87 -8z
m159 -72 c19 -31 -4 -53 -63 -56 l-51 -3 0 41 0 41 51 -3 c36 -2 55 -8 63 -20z"/>
<path d="M1402 478 c-19 -19 -16 -272 3 -288 26 -21 45 5 45 61 l0 49 49 0
c51 0 78 18 67 45 -4 11 -21 15 -61 15 l-55 0 0 35 0 35 59 0 c61 0 89 16 77
45 -7 19 -165 22 -184 3z"/>
</g>
</svg>
